<svg xmlns="http://www.w3.org/2000/svg" width="22" height="16" viewBox="0 0 22 16">
  <g id="Group_40309" data-name="Group 40309" transform="translate(19269 24502)">
    <path id="envelope_1_" data-name="envelope (1)" d="M16.5,11h2a.5.5,0,0,0,.5-.5v-2h0a.5.5,0,0,0-.5-.5h-2a.5.5,0,0,0-.5.5v2h0A.5.5,0,0,0,16.5,11ZM17,9h1v1H17Zm5.5-5H1.5a.5.5,0,0,0-.5.5v15H1a.5.5,0,0,0,.5.5h21a.5.5,0,0,0,.5-.5V4.5h0A.5.5,0,0,0,22.5,4ZM22,19H2V5H22ZM5.5,16h6a.5.5,0,0,0,0-1h-6a.5.5,0,0,0,0,1Zm0-4h6a.5.5,0,0,0,0-1h-6a.5.5,0,0,0,0,1Z" transform="translate(-19270 -24506)" fill="#777"/>
    <path id="envelope_1_2" data-name="envelope (1)" d="M16.5,11h2a.5.5,0,0,0,.5-.5v-2h0a.5.5,0,0,0-.5-.5h-2a.5.5,0,0,0-.5.5v2h0A.5.5,0,0,0,16.5,11ZM17,9h1v1H17Zm5.5-5H1.5a.5.5,0,0,0-.5.5v15H1a.5.5,0,0,0,.5.5h21a.5.5,0,0,0,.5-.5V4.5h0A.5.5,0,0,0,22.5,4ZM22,19H2V5H22ZM5.5,16h6a.5.5,0,0,0,0-1h-6a.5.5,0,0,0,0,1Zm0-4h6a.5.5,0,0,0,0-1h-6a.5.5,0,0,0,0,1Z" transform="translate(-19270 -24506)" fill="#777"/>
    <rect id="Rectangle_7825" data-name="Rectangle 7825" width="7" height="1" rx="0.5" transform="translate(-19265 -24495)" fill="#777"/>
    <path id="Rectangle_7825_-_Outline" data-name="Rectangle 7825 - Outline" d="M.5,0h6a.5.5,0,0,1,0,1H.5a.5.5,0,0,1,0-1Z" transform="translate(-19265 -24495)" fill="#777"/>
    <rect id="Rectangle_7826" data-name="Rectangle 7826" width="7" height="1" rx="0.5" transform="translate(-19265 -24499)" fill="#777"/>
    <path id="Rectangle_7826_-_Outline" data-name="Rectangle 7826 - Outline" d="M.5,0h6a.5.5,0,0,1,0,1H.5a.5.5,0,0,1,0-1Z" transform="translate(-19265 -24499)" fill="#777"/>
  </g>
</svg>
