<svg xmlns="http://www.w3.org/2000/svg" width="21" height="21" viewBox="0 0 21 21">
  <g id="Group_40307" data-name="Group 40307" transform="translate(19159.5 24498.5)">
    <path id="low-brightness_1_" data-name="low-brightness (1)" d="M12,22.5a1.487,1.487,0,0,1-1.06-.44l-2.2-2.2H5.636a1.5,1.5,0,0,1-1.5-1.5V15.257l-2.2-2.2a1.5,1.5,0,0,1,0-2.121l2.2-2.2V5.636a1.5,1.5,0,0,1,1.5-1.5H8.743l2.2-2.2a1.5,1.5,0,0,1,2.121,0l2.2,2.2h3.107a1.5,1.5,0,0,1,1.5,1.5V8.743l2.2,2.2a1.5,1.5,0,0,1,0,2.121l-2.2,2.2v3.107a1.5,1.5,0,0,1-1.5,1.5H15.257l-2.2,2.2a1.507,1.507,0,0,1-1.053.439ZM5.636,5.136a.5.5,0,0,0-.5.5V9.157L2.647,11.646a.5.5,0,0,0,0,.707l2.489,2.489v3.522a.5.5,0,0,0,.5.5H9.157l2.489,2.489A.494.494,0,0,0,12,21.5h0a.5.5,0,0,0,.352-.146l2.49-2.49h3.522a.5.5,0,0,0,.5-.5V14.843l2.489-2.489a.5.5,0,0,0,0-.707L18.864,9.157V5.636a.5.5,0,0,0-.5-.5H14.843L12.354,2.647a.5.5,0,0,0-.707,0L9.157,5.136Z" transform="translate(-19161 -24500)" fill="#777"/>
    <path id="Path_87054" data-name="Path 87054" d="M.395,9.307l-.789-.614,7-9,.789.614Z" transform="translate(-19152.5 -24492.5)" fill="#777"/>
    <path id="Ellipse_7467" data-name="Ellipse 7467" d="M2,1A1,1,0,1,0,3,2,1,1,0,0,0,2,1M2,0A2,2,0,1,1,0,2,2,2,0,0,1,2,0Z" transform="translate(-19149 -24487)" fill="#777"/>
    <path id="Ellipse_7468" data-name="Ellipse 7468" d="M2,1A1,1,0,1,0,3,2,1,1,0,0,0,2,1M2,0A2,2,0,1,1,0,2,2,2,0,0,1,2,0Z" transform="translate(-19153 -24493)" fill="#777"/>
  </g>
</svg>
