<svg xmlns="http://www.w3.org/2000/svg" width="18.75" height="16.734" viewBox="0 0 18.75 16.734">
  <g id="Group_40311" data-name="Group 40311" transform="translate(19680.091 24215.281)">
    <path id="Path_87023" data-name="Path 87023" d="M17.213,13.793h-3.6l2.41-4.778A1.612,1.612,0,0,1,18.9,10.457Zm-1.979-1H16.6l1.41-2.785a.612.612,0,0,0-.275-.818.611.611,0,0,0-.82.274Z" transform="translate(-19692.939 -24223.406)" fill="#707070"/>
    <path id="Path_87020" data-name="Path 87020" d="M19.385,13.793h-3.6l-1.688-3.334a1.614,1.614,0,0,1,.72-2.164,1.611,1.611,0,0,1,2.162.722Zm-2.989-1H17.76L16.081,9.465a.612.612,0,1,0-1.1.545Z" transform="translate(-19681.549 -24223.406)" fill="#707070"/>
    <path id="Path_87014" data-name="Path 87014" d="M3.5,11.124l.731.241a2.749,2.749,0,0,0,.867.153H20.658a2.8,2.8,0,0,0,.869-.152l.728-.237-.905,9.049a3.809,3.809,0,0,1-3.805,3.451H8.216A3.81,3.81,0,0,1,4.41,20.176Zm14.04,11.505a2.813,2.813,0,0,0,2.81-2.55l.76-7.593a3.348,3.348,0,0,1-.456.032H5.1a3.35,3.35,0,0,1-.456-.032l.759,7.592a2.813,2.813,0,0,0,2.81,2.551h9.33Z" transform="translate(-19683.596 -24222.176)" fill="#707070"/>
    <path id="Path_87016" data-name="Path 87016" d="M10.4,14.834a1.613,1.613,0,0,1,1.611,1.611v2.222a1.611,1.611,0,0,1-3.222,0V16.445A1.613,1.613,0,0,1,10.4,14.834Zm0,4.445a.612.612,0,0,0,.611-.611V16.445a.611.611,0,1,0-1.222,0v2.222A.612.612,0,0,0,10.4,19.279Zm4.445-4.445a1.613,1.613,0,0,1,1.611,1.611v2.222a1.611,1.611,0,0,1-3.222,0V16.445A1.613,1.613,0,0,1,14.847,14.834Zm0,4.445a.612.612,0,0,0,.611-.611V16.445a.611.611,0,1,0-1.222,0v2.222A.612.612,0,0,0,14.847,19.279Z" transform="translate(-19681.074 -24222.248)" fill="#707070"/>
    <path id="Path_87017" data-name="Path 87017" d="M10.4,14.834a1.613,1.613,0,0,1,1.611,1.611v2.222a1.611,1.611,0,0,1-3.222,0V16.445A1.613,1.613,0,0,1,10.4,14.834Zm0,4.445a.612.612,0,0,0,.611-.611V16.445a.611.611,0,1,0-1.222,0v2.222A.612.612,0,0,0,10.4,19.279Z" transform="translate(-19685.605 -24222.248)" fill="#707070"/>
  </g>
</svg>
