<svg xmlns="http://www.w3.org/2000/svg" width="21" height="21" viewBox="0 0 21 21">
  <g id="Group_40305" data-name="Group 40305" transform="translate(19518.5 24146.5)">
    <g id="Group_40304" data-name="Group 40304">
      <path id="Line_83" data-name="Line 83" d="M.5,9.055-.5,8.945l1-9L1.5.055Z" transform="translate(-19511.5 -24146)" fill="#777"/>
      <path id="Line_84" data-name="Line 84" d="M.5,9.055l-1-9L.5-.055l1,9Z" transform="translate(-19505.5 -24146)" fill="#777"/>
      <g id="Group_40303" data-name="Group 40303" transform="translate(130 68)">
        <path id="Path_87051" data-name="Path 87051" d="M6,12.5A4.5,4.5,0,0,1,1.5,8a1.5,1.5,0,0,1,.107-.556l2-5A1.494,1.494,0,0,1,5,1.5H19a1.494,1.494,0,0,1,1.393.943l2,5A1.5,1.5,0,0,1,22.5,8,4.5,4.5,0,0,1,15,11.352a4.494,4.494,0,0,1-5.966.03L9,11.352A4.5,4.5,0,0,1,6,12.5ZM5,2.5a.5.5,0,0,0-.465.315l-2,5A.5.5,0,0,0,2.5,8a3.5,3.5,0,0,0,6.125,2.312L9,9.885l.375.427a3.494,3.494,0,0,0,5.249,0L15,9.885l.376.428A3.5,3.5,0,0,0,21.5,8a.5.5,0,0,0-.036-.186l-2-5A.5.5,0,0,0,19,2.5Z" transform="translate(-19650 -24216)" fill="#777"/>
        <path id="Path_87052" data-name="Path 87052" d="M15,9.885l.376.428A3.491,3.491,0,0,0,18,11.5a3.447,3.447,0,0,0,1.75-.489l.752-.438V21A1.5,1.5,0,0,1,19,22.5H5A1.5,1.5,0,0,1,3.5,21V10.6l.75.434a3.5,3.5,0,0,0,4.374-.718L9,9.885l.375.427a3.494,3.494,0,0,0,5.249,0ZM12,12.5a4.49,4.49,0,0,1-2.965-1.118L9,11.352a4.5,4.5,0,0,1-4.5.89V21a.5.5,0,0,0,.5.5H19a.5.5,0,0,0,.5-.5V12.231A4.332,4.332,0,0,1,18,12.5a4.493,4.493,0,0,1-3-1.148A4.5,4.5,0,0,1,12,12.5Z" transform="translate(-19650 -24216)" fill="#777"/>
        <path id="Path_87053" data-name="Path 87053" d="M15.5,22.5h-7V15A1.5,1.5,0,0,1,10,13.5h4A1.5,1.5,0,0,1,15.5,15Zm-6-1h5V15a.5.5,0,0,0-.5-.5H10a.5.5,0,0,0-.5.5Z" transform="translate(-19650 -24216)" fill="#777"/>
      </g>
    </g>
  </g>
</svg>
