<svg xmlns="http://www.w3.org/2000/svg" width="21" height="21.299" viewBox="0 0 21 21.299">
  <g id="Group_40306" data-name="Group 40306" transform="translate(19980.018 24213.752)">
    <g id="account_5_" data-name="account (5)" transform="translate(-19979.518 -24213.252)">
      <path id="Path_86835" data-name="Path 86835" d="M12,14.68h0a6.412,6.412,0,0,1-4.6-1.933A6.61,6.61,0,0,1,12,1.5a6.591,6.591,0,0,1,0,13.18ZM12,2.5a5.61,5.61,0,0,0-3.886,9.546A5.419,5.419,0,0,0,12,13.68,5.591,5.591,0,0,0,12,2.5Z" transform="translate(-2 -2)" fill="#777"/>
      <path id="Path_86836" data-name="Path 86836" d="M8.415,12.14l.228.182a5.468,5.468,0,0,0,6.826,0l.137-.109h.272l.092.036a10.614,10.614,0,0,1,6.58,8.711,1.524,1.524,0,0,1-.375,1.175,1.5,1.5,0,0,1-1.122.5L2.929,22.634l-.027,0a1.515,1.515,0,0,1-1.334-1.669,10.611,10.611,0,0,1,6.577-8.712Zm12.636,9.5a.5.5,0,0,0,.376-.169.521.521,0,0,0,.128-.4,9.617,9.617,0,0,0-5.7-7.784,6.466,6.466,0,0,1-7.594,0,9.616,9.616,0,0,0-5.7,7.784.514.514,0,0,0,.426.564Z" transform="translate(-2.059 -1.839)" fill="#777"/>
    </g>
  </g>
</svg>
