<svg xmlns="http://www.w3.org/2000/svg" width="39.459" height="39.459" viewBox="0 0 39.459 39.459">
  <g id="info_1_" data-name="info (1)" transform="translate(4.768 4.771)">
    <rect id="Rectangle_322" data-name="Rectangle 322" width="34.34" height="34.34" transform="translate(-2.21 -2.211)" fill="none"/>
    <path id="Path_2320" data-name="Path 2320" d="M187.61-28.854a.537.537,0,0,0,.537-.537v-1.073A.537.537,0,0,0,187.61-31h-1.073a.537.537,0,0,0-.537.537v1.073a.537.537,0,0,0,.537.537Z" transform="translate(-172.113 40.057)" fill="#0abf40" fill-rule="evenodd"/>
    <path id="Path_2321" data-name="Path 2321" d="M187.61-187.951a.537.537,0,0,0,.537-.537v-6.975a.537.537,0,0,0-.537-.537h-1.073a.537.537,0,0,0-.537.537v6.975a.537.537,0,0,0,.537.537Z" transform="translate(-172.113 208.813)" fill="#0abf40" fill-rule="evenodd"/>
    <path id="Path_2322" data-name="Path 2322" d="M13.951,25.755a11.794,11.794,0,1,1,3.935-.672,1.073,1.073,0,1,0,.716,2.023,13.956,13.956,0,1,0-4.651.8,1.073,1.073,0,0,0,0-2.147Z" transform="translate(-4.768 14.959) rotate(-45)" fill="#0abf40" fill-rule="evenodd"/>
  </g>
</svg>
